<svg viewBox="0 0 1200 320" xmlns="http://www.w3.org/2000/svg" preserveAspectRatio="xMidYMid meet">
  <defs>
    <linearGradient id="authGrad1" x1="0%" y1="0%" x2="100%" y2="100%">
      <stop offset="0%" style="stop-color:#4F7CFF;stop-opacity:0.8" />
      <stop offset="50%" style="stop-color:#0EA5E9;stop-opacity:0.6" />
      <stop offset="100%" style="stop-color:#22C55E;stop-opacity:0.4" />
    </linearGradient>
    <radialGradient id="authGrad2" cx="30%" cy="30%">
      <stop offset="0%" style="stop-color:#7C5CFF;stop-opacity:0.6" />
      <stop offset="100%" style="stop-color:#7C5CFF;stop-opacity:0" />
    </radialGradient>
  </defs>
  
  <rect width="1200" height="320" fill="#0B1220"/>
  <rect width="1200" height="320" fill="url(#authGrad1)" opacity="0.9"/>
  <rect width="1200" height="320" fill="url(#authGrad2)"/>
  
  <circle cx="1000" cy="80" r="120" fill="#E6EEFC" opacity="0.12"/>
  <circle cx="900" cy="280" r="140" fill="#E6EEFC" opacity="0.08"/>
  <circle cx="200" cy="250" r="100" fill="#E6EEFC" opacity="0.1"/>
  
  <path d="M100 250 Q300 150, 500 200 T900 150" stroke="#E6EEFC" stroke-width="2" stroke-linecap="round" opacity="0.5" fill="none" stroke-dasharray="5,5"/>
  
  <rect x="60" y="40" width="600" height="240" rx="20" fill="rgba(79, 124, 255, 0.08)" stroke="rgba(255, 255, 255, 0.15)" stroke-width="2"/>
  
  <g transform="translate(100, 70)">
    <rect x="8" y="24" width="32" height="28" rx="4" fill="none" stroke="#4F7CFF" stroke-width="2"/>
    <path d="M16 24V12C16 8.68629 18.6863 6 22 6C25.3137 6 28 8.68629 28 12V24" stroke="#4F7CFF" stroke-width="2" stroke-linecap="round"/>
    <circle cx="22" cy="38" r="2" fill="#4F7CFF"/>
  </g>
  
  <text x="140" y="110" font-family="Inter, -apple-system, BlinkMacSystemFont, 'Segoe UI', sans-serif" font-size="36" font-weight="900" fill="#E6EEFC">Secure Login</text>
  <text x="140" y="145" font-family="Inter, -apple-system, BlinkMacSystemFont, 'Segoe UI', sans-serif" font-size="15" fill="#E6EEFC" opacity="0.8">JWT authenticated access</text>
  <text x="140" y="175" font-family="Inter, -apple-system, BlinkMacSystemFont, 'Segoe UI', sans-serif" font-size="13" fill="#E6EEFC" opacity="0.7">✓ Secure • ✓ Fast • ✓ Encrypted</text>
  
  <rect x="750" y="60" width="420" height="80" rx="14" fill="rgba(255, 255, 255, 0.05)" stroke="rgba(79, 124, 255, 0.25)" stroke-width="1"/>
  <circle cx="780" cy="95" r="5" fill="#4F7CFF"/>
  <text x="810" y="88" font-family="Inter, -apple-system, BlinkMacSystemFont, 'Segoe UI', sans-serif" font-size="12" fill="#E6EEFC" opacity="0.6">AUTHENTICATION</text>
  <text x="810" y="110" font-family="Inter, -apple-system, BlinkMacSystemFont, 'Segoe UI', sans-serif" font-size="16" font-weight="700" fill="#E6EEFC">JWT Tokens</text>
  
  <rect x="750" y="160" width="420" height="80" rx="14" fill="rgba(255, 255, 255, 0.05)" stroke="rgba(79, 124, 255, 0.25)" stroke-width="1"/>
  <circle cx="780" cy="195" r="5" fill="#22C55E"/>
  <text x="810" y="188" font-family="Inter, -apple-system, BlinkMacSystemFont, 'Segoe UI', sans-serif" font-size="12" fill="#E6EEFC" opacity="0.6">PROTECTION</text>
  <text x="810" y="210" font-family="Inter, -apple-system, BlinkMacSystemFont, 'Segoe UI', sans-serif" font-size="16" font-weight="700" fill="#E6EEFC">Hashed Passwords</text>
</svg>
