<svg width="1200" height="400" viewBox="0 0 1200 400" fill="none" xmlns="http://www.w3.org/2000/svg">
  <defs>
    <linearGradient id="g" x1="0" y1="0" x2="1200" y2="400" gradientUnits="userSpaceOnUse">
      <stop stop-color="#4F7CFF" stop-opacity="0.95"/>
      <stop offset="1" stop-color="#22C55E" stop-opacity="0.65"/>
    </linearGradient>
    <linearGradient id="g2" x1="0" y1="0" x2="0" y2="400" gradientUnits="userSpaceOnUse">
      <stop stop-color="#0B1220" stop-opacity="0"/>
      <stop offset="1" stop-color="#0B1220" stop-opacity="0.65"/>
    </linearGradient>
  </defs>

  <rect x="0" y="0" width="1200" height="400" rx="28" fill="url(#g)"/>
  <rect x="0" y="0" width="1200" height="400" rx="28" fill="url(#g2)"/>

  <g opacity="0.28">
    <circle cx="170" cy="110" r="86" fill="#ffffff"/>
    <circle cx="1030" cy="310" r="120" fill="#ffffff"/>
    <circle cx="980" cy="80" r="52" fill="#ffffff"/>
  </g>

  <path d="M130 280 C240 160, 320 340, 460 210 C560 120, 640 260, 770 165 C870 92, 990 170, 1090 120" stroke="#E6EEFC" stroke-width="10" stroke-linecap="round" opacity="0.85"/>

  <g>
    <rect x="86" y="64" width="420" height="92" rx="18" fill="rgba(11,18,32,0.55)" stroke="rgba(255,255,255,0.18)"/>
    <text x="110" y="104" font-family="ui-sans-serif, system-ui, -apple-system, Segoe UI, Roboto, Arial" font-size="26" fill="#E6EEFC" font-weight="800">Earnify</text>
    <text x="110" y="132" font-family="ui-sans-serif, system-ui, -apple-system, Segoe UI, Roboto, Arial" font-size="16" fill="#E6EEFC" opacity="0.9">Track earnings. Invest smart. Earn hourly.</text>
  </g>

  <g>
    <rect x="86" y="178" width="300" height="160" rx="18" fill="rgba(11,18,32,0.55)" stroke="rgba(255,255,255,0.18)"/>
    <text x="110" y="220" font-family="ui-sans-serif, system-ui, -apple-system, Segoe UI, Roboto, Arial" font-size="14" fill="#E6EEFC" opacity="0.85">Estimated Growth</text>
    <text x="110" y="260" font-family="ui-sans-serif, system-ui, -apple-system, Segoe UI, Roboto, Arial" font-size="34" fill="#E6EEFC" font-weight="900">+3% / day</text>
    <text x="110" y="296" font-family="ui-sans-serif, system-ui, -apple-system, Segoe UI, Roboto, Arial" font-size="14" fill="#E6EEFC" opacity="0.85">Hourly crediting via scheduler</text>
  </g>

  <g>
    <rect x="910" y="64" width="230" height="92" rx="18" fill="rgba(11,18,32,0.55)" stroke="rgba(255,255,255,0.18)"/>
    <text x="936" y="104" font-family="ui-sans-serif, system-ui, -apple-system, Segoe UI, Roboto, Arial" font-size="16" fill="#E6EEFC" opacity="0.85">Networks</text>
    <text x="936" y="134" font-family="ui-sans-serif, system-ui, -apple-system, Segoe UI, Roboto, Arial" font-size="22" fill="#E6EEFC" font-weight="800">TRC20 • BEP20</text>
  </g>
</svg>
