<svg width="24" height="24" viewBox="0 0 24 24" fill="none" xmlns="http://www.w3.org/2000/svg">
<path d="M12 2C6.477 2 2 6.477 2 12C2 17.523 6.477 22 12 22C17.523 22 22 17.523 22 12C22 6.477 17.523 2 12 2Z" fill="#0088CC"/>
<path d="M9.345 15.915C8.895 16.335 8.445 16.305 8.445 16.305L7.665 12.585L16.305 7.995C16.305 7.995 16.755 7.785 16.755 8.055C16.755 8.325 16.755 8.325 16.755 8.325L15.345 17.265C15.345 17.265 15.255 17.595 14.955 17.595C14.655 17.595 14.505 17.475 14.505 17.475L11.505 15.045L9.345 15.915Z" fill="white"/>
<path d="M12.045 13.545L11.505 15.045L9.345 15.915L10.755 11.505L15.345 8.325L12.045 13.545Z" fill="#E8F4F8"/>
</svg>
